<?xml version="1.0" encoding="utf-8"?>
<!-- Generator: Adobe Illustrator 21.0.2, SVG Export Plug-In . SVG Version: 6.00 Build 0)  -->
<svg version="1.1" xmlns="http://www.w3.org/2000/svg" xmlns:xlink="http://www.w3.org/1999/xlink" x="0px" y="0px"
	 viewBox="0 0 64 64" style="enable-background:new 0 0 64 64;" xml:space="preserve">
<style type="text/css">
	.st0{fill:#632F5F;}
	.st1{fill:#FFFFFF;}
	.st2{display:none;fill:#FFFFFF;}
	.st3{font-family:'MyriadPro-Regular';}
	.st4{font-size:12px;}
</style>
<g id="Layer_1">
	<path class="st0" d="M0,0h64v64H0V0z"/>
</g>
<g id="Layer_2">
	<path class="st1" d="M29.3,16H16.5v12.8L35.7,48l12.8-12.8L29.3,16z M18.8,27.8v-9.6h9.6l17,17l-9.6,9.6L18.8,27.8z"/>
	<path class="st1" d="M22.1,21.6c-1.5,1.5-1.5,4.1,0,5.6c1.5,1.5,4.1,1.5,5.6,0c1.5-1.5,1.5-4.1,0-5.6
		C26.2,20.1,23.7,20.1,22.1,21.6z M23.7,23.2c0.7-0.7,1.7-0.7,2.4,0s0.7,1.7,0,2.4c0,0,0,0,0,0c-0.7,0.7-1.7,0.6-2.4,0
		C23.1,24.9,23.1,23.9,23.7,23.2z"/>
	<path class="st2" d="M41.7,35.6l-5.6,5.6l-8-8l5.6-5.6L41.7,35.6z"/>
	<text transform="matrix(0.7111 0.7031 -0.7031 0.7111 30.7594 36.145)" class="st1 st3 st4">?</text>
</g>
</svg>
