<?xml version="1.0" encoding="utf-8"?>
<!-- Generator: Adobe Illustrator 21.0.2, SVG Export Plug-In . SVG Version: 6.00 Build 0)  -->
<svg version="1.1" xmlns="http://www.w3.org/2000/svg" xmlns:xlink="http://www.w3.org/1999/xlink" x="0px" y="0px"
	 viewBox="0 0 64 64" style="enable-background:new 0 0 64 64;" xml:space="preserve">
<style type="text/css">
	.st0{fill:#632F5F;}
	.st1{fill:#FFFFFF;}
	.st2{display:none;fill:#FFFFFF;}
</style>
<g id="Layer_1">
	<path class="st0" d="M0,0h64v64H0V0z"/>
</g>
<g id="Layer_2">
	<path class="st1" d="M29.3,16H16.5v12.8L35.7,48l12.8-12.8L29.3,16z M18.8,27.8v-9.6h9.6l17,17l-9.6,9.6L18.8,27.8z"/>
	<path class="st1" d="M22.1,21.6c-1.5,1.5-1.5,4.1,0,5.6c1.5,1.5,4.1,1.5,5.6,0c1.5-1.5,1.5-4.1,0-5.6
		C26.2,20.1,23.7,20.1,22.1,21.6z M23.7,23.2c0.7-0.7,1.7-0.7,2.4,0s0.7,1.7,0,2.4c0,0,0,0,0,0c-0.7,0.7-1.7,0.6-2.4,0
		C23.1,24.9,23.1,23.9,23.7,23.2z"/>
	<path class="st2" d="M41.7,35.6l-5.6,5.6l-8-8l5.6-5.6L41.7,35.6z"/>
	<g>
		<path class="st1" d="M32.2,36.7c0.3-0.3,0.7-0.3,1,0c0.3,0.3,0.3,0.7,0,1c-0.3,0.3-0.7,0.3-1,0C31.9,37.4,31.9,37,32.2,36.7z
			 M33.6,35.7l0.2-0.2c0.4-0.5,1.1-0.9,2-1c0.8-0.1,1.4-0.2,1.8-0.6c0.4-0.4,0.4-1-0.1-1.5c-0.3-0.3-0.8-0.5-1.1-0.6l0.3-0.7
			c0.5,0.1,1.1,0.4,1.6,0.9c1,1,0.8,2,0.2,2.7c-0.6,0.6-1.3,0.7-2.2,0.8c-0.8,0.1-1.3,0.3-1.7,0.8l-0.2,0.2L33.6,35.7z"/>
	</g>
</g>
</svg>
