<?xml version="1.0" encoding="utf-8"?>
<!-- Generator: Adobe Illustrator 21.0.2, SVG Export Plug-In . SVG Version: 6.00 Build 0)  -->
<svg version="1.1" id="Layer_1" xmlns="http://www.w3.org/2000/svg" xmlns:xlink="http://www.w3.org/1999/xlink" x="0px" y="0px"
	 viewBox="0 0 16 16" style="enable-background:new 0 0 16 16;" xml:space="preserve">
<style type="text/css">
	.st0{fill:#999999;}
	.st1{fill:#FFFFFF;}
	.st2{fill:#FF8700;}
	.st3{font-family:'MyriadPro-Regular';}
	.st4{font-size:4.1416px;}
</style>
<path class="st0" d="M1,1v5.7l8.5,8.5l5.7-5.7L6.7,1H1z M3.5,3.5c0.7-0.7,1.8-0.7,2.5,0s0.7,1.8,0,2.5S4.2,6.6,3.5,6
	S2.8,4.2,3.5,3.5z"/>
<path class="st1" d="M2,2v4.2l7.5,7.5l4.2-4.2L6.2,2H2z M3.5,3.5c0.7-0.7,1.8-0.7,2.5,0s0.7,1.8,0,2.5S4.2,6.6,3.5,6
	S2.8,4.2,3.5,3.5z"/>
<path class="st0" d="M3.5,3.5C2.8,4.2,2.8,5.3,3.5,6S5.3,6.6,6,6s0.7-1.8,0-2.5S4.2,2.8,3.5,3.5z M4.2,4.2c0.3-0.3,0.8-0.3,1.1,0
	s0.3,0.8,0,1.1c0,0,0,0,0,0c-0.3,0.3-0.8,0.3-1.1,0C3.9,4.9,3.9,4.5,4.2,4.2z"/>
<text transform="matrix(0.7111 0.7031 -0.7031 0.7111 8.0709 10.1981)" class="st2 st3 st4">?</text>
</svg>
